<svg width="19" height="21" viewBox="0 0 19 21" fill="none" xmlns="http://www.w3.org/2000/svg">
<path fill-rule="evenodd" clip-rule="evenodd" d="M0.370054 0.245395C0.690378 -0.0267785 1.1409 -0.077217 1.51222 0.11751L18.422 8.98538C18.7923 9.17963 19.0115 9.57976 18.9781 10.0008C18.9448 10.4217 18.6653 10.7813 18.2691 10.9131L11.1689 13.2768L7.63708 19.9467C7.44007 20.3189 7.04176 20.5351 6.62658 20.4953C6.21139 20.4555 5.86027 20.1675 5.7357 19.7644L0.047338 1.36214C-0.0775701 0.958058 0.0497203 0.517557 0.370054 0.245395ZM2.76695 3.13784L6.97631 16.7554L9.53893 11.9158C9.66457 11.6785 9.87557 11.4991 10.1283 11.415L15.2801 9.70006L2.76695 3.13784Z" fill="#1C1C1C"/>
</svg>
